<?xml version="1.0" encoding="UTF-8"?>
<svg xmlns="http://www.w3.org/2000/svg" xmlns:xlink="http://www.w3.org/1999/xlink" width="850.28pt" height="665.2pt" viewBox="0 0 850.28 665.2" version="1.1">
<defs>
<clipPath id="clip1">
  <path d="M 0 397 L 850.28125 397 L 850.28125 665.199219 L 0 665.199219 Z M 0 397 "/>
</clipPath>
</defs>
<g id="surface1">
<path style=" stroke:none;fill-rule:nonzero;fill:rgb(98.799133%,37.998962%,31.399536%);fill-opacity:1;" d="M 96.128906 221.382813 C 94.339844 227.632813 92.71875 233.707031 91.292969 239.496094 C 89.496094 246.789063 87.84375 253.414063 86.351563 259.359375 C 84.878906 265.183594 83.839844 269.867188 83.261719 273.289063 C 82.074219 279.359375 78.101563 283.1875 71.757813 284.4375 C 66.296875 285.515625 60.429688 285.066406 54.378906 283.101563 C 48.421875 281.15625 42.996094 277.777344 38.253906 273.058594 C 33.277344 268.109375 30.753906 261.878906 30.753906 254.542969 C 30.753906 248.574219 32.25 239.140625 35.324219 225.699219 C 38.316406 212.59375 42.640625 197.046875 48.179688 179.488281 C 53.679688 162.0625 60.34375 142.867188 67.988281 122.4375 C 74.566406 104.878906 81.929688 87.210938 89.925781 69.785156 C 92.546875 64.078125 97.957031 60.152344 104.195313 59.425781 C 118.320313 57.785156 130.574219 58.1875 140.953125 60.640625 C 147.203125 62.113281 150.566406 68.914063 147.945313 74.777344 C 141.25 89.742188 135.074219 104.664063 129.558594 119.195313 C 125.097656 130.960938 120.8125 142.601563 116.777344 153.925781 C 116.378906 155.039063 117.519531 156.078125 118.59375 155.585938 C 123.976563 153.105469 129.296875 150.183594 134.492188 146.847656 C 143.007813 141.375 150.765625 134.839844 157.550781 127.421875 C 164.3125 120.019531 169.855469 111.664063 174.027344 102.582031 C 178.148438 93.597656 180.242188 83.824219 180.242188 73.53125 C 180.242188 60.292969 176.578125 50.519531 169.351563 44.484375 C 162.039063 38.375 151.734375 35.28125 138.730469 35.28125 C 124.878906 35.28125 112.210938 38.566406 101.078125 45.050781 C 89.671875 51.691406 79.800781 59.867188 71.738281 69.359375 C 63.625 78.894531 57.234375 89.09375 52.746094 99.667969 C 48.300781 110.152344 46.042969 119.34375 46.042969 126.984375 C 46.042969 132.464844 43.148438 136.425781 37.898438 138.128906 C 33.292969 139.625 28.222656 139.410156 23.015625 137.464844 C 18.003906 135.59375 13.363281 131.914063 9.214844 126.523438 C 5.039063 121.105469 2.921875 113.765625 2.921875 104.714844 C 2.921875 96.816406 5.914063 87.503906 12.070313 76.253906 C 18.074219 65.292969 26.9375 54.621094 38.421875 44.535156 C 49.886719 34.464844 64.363281 25.726563 81.453125 18.570313 C 98.652344 11.367188 118.527344 7.71875 140.527344 7.71875 C 153.054688 7.71875 165.617188 9.1875 177.859375 12.082031 C 190.207031 15.007813 201.394531 19.457031 211.109375 25.304688 C 220.949219 31.222656 229.027344 38.65625 235.121094 47.398438 C 241.324219 56.289063 244.464844 66.71875 244.464844 78.394531 C 244.464844 90.972656 241.707031 102.765625 236.261719 113.445313 C 230.859375 124.023438 223.433594 133.6875 214.183594 142.160156 C 205.023438 150.566406 194.164063 157.988281 181.910156 164.210938 C 171.800781 169.335938 161.050781 173.707031 149.898438 177.230469 C 149.1875 177.453125 148.933594 177.820313 148.964844 178.558594 C 149.207031 184.125 149.605469 189.609375 150.152344 194.90625 C 150.785156 200.980469 151.621094 206.910156 152.644531 212.527344 C 153.648438 218.046875 154.855469 223.429688 156.226563 228.519531 C 157.292969 232.457031 158.480469 236.296875 159.753906 239.929688 C 160.566406 242.25 161.421875 244.515625 162.296875 246.652344 C 164.039063 250.949219 165.964844 255.058594 168.011719 258.871094 C 170.019531 262.609375 172.195313 266.160156 174.484375 269.425781 C 176.707031 272.601563 179.097656 275.597656 181.589844 278.324219 C 184.011719 280.972656 186.578125 283.421875 189.21875 285.59375 C 191.789063 287.714844 194.5 289.628906 197.273438 291.289063 C 199.972656 292.898438 202.804688 294.300781 205.6875 295.460938 C 208.53125 296.597656 211.480469 297.511719 214.441406 298.175781 C 217.398438 298.839844 220.464844 299.277344 223.550781 299.476563 C 226.636719 299.667969 229.847656 299.625 233.050781 299.339844 C 236.304688 299.054688 239.632813 298.511719 242.949219 297.734375 C 246.335938 296.9375 249.789063 295.878906 253.222656 294.578125 C 256.738281 293.25 260.300781 291.644531 263.808594 289.8125 C 265.148438 289.109375 266.503906 288.367188 267.851563 287.589844 C 272.230469 285.0625 277.816406 286.265625 280.757813 290.378906 C 283.703125 294.488281 283.046875 300.164063 279.242188 303.492188 C 277.378906 305.128906 275.503906 306.71875 273.640625 308.253906 C 269.140625 311.945313 264.621094 315.371094 260.210938 318.433594 C 256.011719 321.347656 251.753906 324.046875 247.550781 326.445313 C 245.441406 327.652344 243.230469 328.847656 240.988281 329.984375 C 236.664063 332.175781 232.289063 334.109375 227.984375 335.734375 C 223.6875 337.347656 219.371094 338.679688 215.164063 339.695313 C 210.964844 340.714844 206.734375 341.449219 202.59375 341.875 C 199.648438 342.175781 196.699219 342.328125 193.820313 342.328125 C 192.652344 342.328125 191.492188 342.304688 190.328125 342.253906 C 186.332031 342.082031 182.351563 341.609375 178.503906 340.847656 C 176.589844 340.472656 174.671875 340.015625 172.789063 339.488281 C 170.976563 338.984375 169.109375 338.386719 167.246094 337.707031 C 163.65625 336.398438 160.105469 334.785156 156.703125 332.917969 C 153.363281 331.085938 150.085938 328.964844 146.96875 326.617188 C 144.453125 324.71875 141.984375 322.632813 139.636719 320.417969 C 136.808594 317.753906 134.0625 314.804688 131.460938 311.652344 C 128.894531 308.550781 126.433594 305.195313 124.144531 301.675781 C 121.855469 298.160156 119.6875 294.417969 117.691406 290.550781 C 115.695313 286.683594 113.8125 282.578125 112.097656 278.339844 C 110.402344 274.152344 108.808594 269.695313 107.371094 265.097656 C 105.964844 260.578125 104.667969 255.789063 103.523438 250.863281 C 102.386719 245.945313 101.398438 240.839844 100.578125 235.6875 C 99.851563 231.136719 99.234375 226.410156 98.742188 221.613281 C 98.59375 220.152344 96.535156 219.96875 96.128906 221.382813 "/>
<path style=" stroke:none;fill-rule:nonzero;fill:rgb(98.799133%,37.998962%,31.399536%);fill-opacity:1;" d="M 847.363281 37.394531 C 847.363281 58.046875 830.613281 74.789063 809.964844 74.789063 C 789.3125 74.789063 772.566406 58.046875 772.566406 37.394531 C 772.566406 16.742188 789.3125 -0.00390625 809.964844 -0.00390625 C 830.613281 -0.00390625 847.363281 16.742188 847.363281 37.394531 "/>
<path style=" stroke:none;fill-rule:nonzero;fill:rgb(98.799133%,37.998962%,31.399536%);fill-opacity:1;" d="M 670.148438 139.9375 C 668.980469 146.511719 667.121094 154.09375 664.625 162.464844 C 662.121094 170.820313 658.914063 179.632813 655.128906 188.574219 C 651.003906 197.59375 646.742188 206.023438 642.460938 213.628906 C 638.222656 221.148438 634.003906 227.617188 629.941406 232.855469 C 625.980469 237.960938 622.3125 241.734375 619.027344 244.078125 C 616.558594 245.847656 615.1875 246.035156 614.714844 246.035156 C 614.496094 246.035156 614.320313 246.003906 614.128906 245.914063 C 613.71875 245.734375 612.339844 244.78125 611.738281 240.289063 C 611.179688 236.179688 611.476563 230.777344 612.621094 224.234375 C 613.789063 217.484375 615.648438 209.84375 618.148438 201.515625 C 620.628906 193.203125 623.828125 184.394531 627.675781 175.328125 C 631.484375 166.34375 635.648438 157.953125 640.058594 150.394531 C 644.460938 142.84375 648.746094 136.441406 652.800781 131.363281 C 656.738281 126.40625 660.417969 122.6875 663.734375 120.316406 C 666.214844 118.546875 667.582031 118.355469 668.054688 118.355469 C 668.273438 118.355469 668.457031 118.390625 668.625 118.46875 C 669.03125 118.652344 670.414063 119.605469 671.023438 124.097656 C 671.578125 128.214844 671.285156 133.542969 670.148438 139.9375 M 502.707031 139.941406 C 501.539063 146.515625 499.679688 154.09375 497.183594 162.464844 C 494.664063 170.859375 491.457031 179.671875 487.6875 188.574219 C 483.558594 197.609375 479.296875 206.039063 475.023438 213.628906 C 470.777344 221.152344 466.5625 227.621094 462.496094 232.855469 C 458.542969 237.960938 454.871094 241.730469 451.582031 244.078125 C 449.113281 245.847656 447.75 246.035156 447.277344 246.035156 C 447.054688 246.035156 446.878906 246.003906 446.6875 245.914063 C 446.277344 245.734375 444.898438 244.785156 444.296875 240.289063 C 443.738281 236.195313 444.035156 230.792969 445.179688 224.234375 C 446.34375 217.507813 448.203125 209.867188 450.703125 201.515625 C 453.1875 193.199219 456.390625 184.390625 460.238281 175.328125 C 464.054688 166.320313 468.214844 157.929688 472.613281 150.394531 C 477.03125 142.835938 481.316406 136.433594 485.355469 131.367188 C 489.308594 126.394531 492.988281 122.675781 496.292969 120.3125 C 498.769531 118.546875 500.140625 118.355469 500.609375 118.355469 C 500.832031 118.355469 501.015625 118.390625 501.183594 118.46875 C 501.59375 118.652344 502.976563 119.605469 503.585938 124.097656 C 504.136719 128.203125 503.839844 133.535156 502.707031 139.941406 M 321.539063 139.539063 C 320.816406 146.207031 319.40625 153.835938 317.351563 162.210938 C 315.289063 170.550781 312.464844 179.339844 308.953125 188.335938 C 305.449219 197.285156 301.714844 205.703125 297.855469 213.359375 C 294.070313 220.835938 290.246094 227.210938 286.480469 232.3125 C 282.808594 237.277344 279.359375 240.976563 276.226563 243.308594 C 273.902344 245.042969 272.621094 245.230469 272.179688 245.230469 C 271.976563 245.230469 271.804688 245.191406 271.617188 245.105469 C 271.191406 244.917969 269.742188 243.941406 268.988281 239.378906 C 268.277344 235.207031 268.214844 229.820313 268.789063 223.367188 C 269.371094 216.804688 270.703125 209.265625 272.75 200.964844 C 274.796875 192.652344 277.621094 183.863281 281.152344 174.839844 C 284.703125 165.773438 288.4375 157.351563 292.253906 149.808594 C 296.019531 142.339844 299.851563 135.886719 303.648438 130.625 C 307.300781 125.550781 310.742188 121.796875 313.871094 119.460938 C 316.195313 117.730469 317.480469 117.542969 317.925781 117.542969 C 318.136719 117.542969 318.308594 117.578125 318.472656 117.652344 C 318.914063 117.855469 320.433594 118.867188 321.359375 123.492188 C 322.191406 127.597656 322.25 132.996094 321.539063 139.539063 M 839.011719 188.234375 C 837.191406 185.40625 833.683594 183.578125 830.070313 183.578125 C 826.644531 183.578125 823.566406 185.183594 821.628906 187.988281 C 819.414063 191.195313 816.679688 195.007813 813.496094 199.3125 C 810.007813 204.035156 806.242188 208.5625 802.304688 212.769531 C 798.394531 216.957031 794.582031 220.597656 790.972656 223.589844 C 787.238281 226.683594 784.824219 227.335938 783.460938 227.335938 C 782.503906 227.335938 780.722656 227.335938 780.320313 222.628906 C 779.898438 217.699219 780.628906 211.289063 782.492188 203.574219 C 784.394531 195.652344 787.144531 186.855469 790.679688 177.429688 C 794.277344 167.839844 797.890625 158.675781 801.414063 150.199219 C 805.074219 141.390625 808.21875 134.066406 811.023438 127.808594 C 813.820313 121.582031 815.574219 117.527344 816.242188 115.757813 C 818.480469 110.625 817.660156 105.566406 813.878906 101.125 C 810.402344 97.054688 805.753906 94.199219 800.0625 92.640625 C 794.503906 91.117188 788.445313 91.03125 782.128906 92.378906 C 775.367188 93.824219 770.007813 97.734375 766.195313 103.996094 C 762.839844 109.492188 758.46875 118.125 753.210938 129.65625 C 747.933594 141.214844 742.835938 154.046875 738.058594 167.800781 C 735.15625 176.140625 732.480469 184.617188 730.0625 193.152344 C 726.03125 207.347656 717.746094 219.96875 706.320313 229.304688 C 702.230469 232.648438 697.925781 235.796875 693.449219 238.726563 C 691.46875 240.023438 689.476563 241.222656 687.480469 242.324219 C 686.84375 242.671875 686.1875 241.90625 686.621094 241.335938 C 690.074219 236.789063 693.472656 231.875 696.78125 226.625 C 703.609375 215.816406 709.828125 202.867188 715.273438 188.148438 C 721.023438 172.5625 724.636719 158.34375 726.003906 145.886719 C 727.378906 133.277344 726.898438 122.273438 724.570313 113.183594 C 722.167969 103.796875 717.960938 96.414063 712.0625 91.234375 C 705.960938 85.886719 698.410156 83.171875 689.640625 83.171875 C 679.296875 83.171875 669.789063 85.910156 661.386719 91.308594 C 655.644531 94.996094 650.324219 99.113281 645.503906 103.605469 C 645.105469 103.980469 644.773438 103.9375 644.480469 103.476563 C 643.410156 101.769531 641.96875 100.164063 640.15625 98.660156 C 636.078125 95.289063 631.171875 93.035156 625.5625 91.953125 C 619.9375 90.886719 614.222656 91.273438 608.648438 93.101563 C 602.6875 95.0625 598.238281 99.109375 595.429688 105.136719 C 590.039063 116.75 584.347656 130.304688 578.507813 145.425781 C 572.683594 160.523438 567.003906 176.304688 561.621094 192.332031 C 561.027344 194.109375 560.433594 195.886719 559.84375 197.664063 C 555.296875 211.335938 546.761719 223.332031 535.339844 232.105469 C 532.328125 234.417969 529.210938 236.628906 526.007813 238.726563 C 524.027344 240.023438 522.03125 241.222656 520.03125 242.324219 C 519.398438 242.671875 518.742188 241.910156 519.179688 241.335938 C 522.628906 236.789063 526.023438 231.878906 529.335938 226.628906 C 536.164063 215.824219 542.382813 202.878906 547.832031 188.148438 C 553.582031 172.558594 557.191406 158.34375 558.558594 145.886719 C 559.9375 133.273438 559.457031 122.269531 557.128906 113.183594 C 554.730469 103.800781 550.523438 96.417969 544.621094 91.234375 C 538.515625 85.886719 530.96875 83.171875 522.203125 83.171875 C 511.851563 83.171875 502.347656 85.910156 493.945313 91.304688 C 488.199219 94.996094 482.878906 99.113281 478.0625 103.605469 C 477.664063 103.976563 477.332031 103.933594 477.046875 103.472656 C 475.972656 101.769531 474.527344 100.160156 472.710938 98.660156 C 468.636719 95.289063 463.730469 93.035156 458.117188 91.953125 C 452.492188 90.886719 446.769531 91.273438 441.210938 93.101563 C 435.253906 95.058594 430.804688 99.105469 427.984375 105.140625 C 422.589844 116.769531 416.898438 130.324219 411.066406 145.425781 C 405.597656 159.613281 400.273438 174.339844 395.226563 189.242188 C 391.417969 200.488281 385.714844 209.523438 377.203125 217.804688 C 375.007813 219.941406 372.863281 221.875 370.796875 223.589844 C 367.0625 226.683594 364.652344 227.335938 363.285156 227.335938 C 362.328125 227.335938 360.546875 227.335938 360.144531 222.625 C 359.726563 217.707031 360.453125 211.300781 362.3125 203.574219 C 364.214844 195.65625 366.96875 186.855469 370.503906 177.429688 C 374.0625 167.9375 377.675781 158.773438 381.234375 150.199219 C 384.832031 141.558594 388.066406 134.023438 390.847656 127.808594 C 393.699219 121.460938 395.402344 117.511719 396.058594 115.753906 C 398.304688 110.625 397.488281 105.566406 393.703125 101.125 C 390.21875 97.046875 385.484375 94.1875 379.632813 92.632813 C 373.914063 91.117188 367.871094 91.03125 361.707031 92.382813 C 355.105469 93.832031 349.824219 97.742188 346.019531 103.984375 C 345.257813 105.21875 344.464844 106.582031 343.625 108.097656 C 343.328125 108.636719 342.519531 108.515625 342.390625 107.910156 C 341.664063 104.503906 340.496094 101.28125 338.898438 98.285156 C 336.507813 93.820313 332.964844 90.160156 328.367188 87.398438 C 323.703125 84.59375 317.777344 83.171875 310.761719 83.171875 C 294.222656 83.171875 277.445313 90.804688 260.90625 105.863281 C 244.664063 120.648438 231.203125 144.234375 220.886719 175.984375 C 216.042969 191.292969 213.203125 205.445313 212.441406 218.046875 C 211.675781 230.800781 212.703125 241.808594 215.496094 250.757813 C 218.371094 259.984375 222.96875 267.269531 229.160156 272.402344 C 235.539063 277.710938 243.214844 280.402344 251.953125 280.402344 C 258.421875 280.402344 264.59375 279.285156 270.296875 277.082031 C 275.828125 274.945313 280.953125 272.203125 285.53125 268.925781 C 289.054688 266.40625 292.335938 263.554688 295.316406 260.421875 C 297.441406 258.1875 301.183594 259.089844 302.0625 262.046875 C 303.039063 265.355469 304.40625 268.304688 306.152344 270.867188 C 310.472656 277.191406 317.3125 280.402344 326.476563 280.402344 C 336.628906 280.402344 346.886719 276.59375 356.96875 269.085938 C 361.664063 265.589844 366.253906 261.777344 370.703125 257.675781 C 371.703125 256.753906 373.277344 257.742188 372.886719 259.042969 C 370.289063 267.679688 367.957031 275.679688 365.859375 283.1875 C 362.316406 295.808594 359.4375 306.675781 357.300781 315.496094 C 354.433594 327.324219 354.066406 330.539063 354.066406 332.023438 C 354.066406 339.273438 356.316406 345.457031 360.765625 350.402344 C 365.058594 355.15625 370.035156 358.570313 375.570313 360.542969 C 379.214844 361.835938 382.769531 362.492188 386.132813 362.492188 C 387.996094 362.492188 389.832031 362.289063 391.597656 361.894531 C 395.5625 360.992188 400.597656 358.347656 402.066406 350.847656 L 402.089844 350.699219 C 402.675781 346.75 403.785156 341.398438 405.398438 334.789063 C 407.070313 327.933594 409.105469 320.125 411.445313 311.585938 C 413.753906 303.09375 416.394531 293.636719 419.511719 282.664063 C 420.949219 277.597656 422.496094 272.285156 424.136719 266.765625 C 424.472656 265.644531 425.988281 265.464844 426.574219 266.480469 C 427.304688 267.742188 428.117188 268.972656 429.011719 270.171875 C 434.0625 276.941406 442.121094 280.382813 452.96875 280.402344 C 455.144531 280.5 457.335938 280.550781 459.46875 280.550781 L 459.472656 280.550781 C 475.421875 280.550781 490.398438 277.8125 503.988281 272.414063 C 516.972656 267.265625 528.867188 260.972656 539.464844 253.683594 C 540.503906 252.96875 541.863281 253.964844 541.5 255.171875 C 538.457031 265.195313 535.714844 274.574219 533.300781 283.1875 C 529.742188 295.898438 526.859375 306.765625 524.738281 315.496094 C 521.878906 327.347656 521.507813 330.554688 521.507813 332.023438 C 521.507813 339.273438 523.757813 345.453125 528.207031 350.402344 C 532.503906 355.160156 537.480469 358.570313 543.015625 360.542969 C 546.660156 361.835938 550.210938 362.492188 553.574219 362.492188 C 555.433594 362.492188 557.273438 362.289063 559.042969 361.894531 C 563.011719 360.992188 568.042969 358.347656 569.511719 350.847656 L 569.539063 350.699219 C 570.117188 346.734375 571.234375 341.382813 572.847656 334.785156 C 574.515625 327.933594 576.546875 320.128906 578.886719 311.585938 C 581.210938 303.058594 583.847656 293.597656 586.957031 282.664063 C 588.398438 277.585938 589.941406 272.273438 591.578125 266.765625 C 591.914063 265.640625 593.429688 265.460938 594.019531 266.476563 C 594.746094 267.738281 595.5625 268.972656 596.460938 270.171875 C 601.503906 276.941406 609.566406 280.382813 620.414063 280.402344 C 622.589844 280.5 624.777344 280.550781 626.914063 280.550781 L 626.917969 280.550781 C 642.859375 280.550781 657.839844 277.8125 671.433594 272.414063 C 686.644531 266.382813 700.394531 258.789063 712.300781 249.839844 C 714.324219 248.316406 716.296875 246.777344 718.214844 245.222656 C 719.097656 244.507813 720.410156 245.148438 720.390625 246.28125 C 720.382813 246.789063 720.378906 247.296875 720.378906 247.796875 C 720.378906 257.316406 722.378906 265.078125 726.328125 270.867188 C 730.648438 277.191406 737.488281 280.402344 746.652344 280.402344 C 756.789063 280.402344 767.113281 276.601563 777.34375 269.105469 C 787.066406 261.984375 796.246094 253.5625 804.632813 244.074219 C 812.902344 234.726563 820.171875 225.40625 826.238281 216.378906 C 832.371094 207.242188 836.503906 200.992188 838.859375 197.273438 C 840.742188 194.308594 840.796875 191.011719 839.011719 188.234375 "/>
<g clip-path="url(#clip1)" clip-rule="nonzero">
<path style=" stroke:none;fill-rule:nonzero;fill:rgb(98.799133%,37.998962%,31.399536%);fill-opacity:1;" d="M 839.230469 482.777344 C 794.496094 521.9375 754.816406 524.394531 707.171875 489.316406 C 685.257813 473.207031 665.636719 454.011719 643.667969 437.984375 C 626.671875 425.589844 608.703125 413.277344 589.308594 405.621094 C 555.746094 392.335938 521.695313 396.851563 491.042969 415.476563 C 470.21875 428.128906 451.25 443.898438 431.941406 458.921875 C 429.226563 461.007813 427.199219 462.152344 425.140625 462.066406 C 423.085938 462.152344 421.058594 461.007813 418.34375 458.921875 C 399.035156 443.898438 380.0625 428.128906 359.242188 415.476563 C 328.621094 396.851563 294.539063 392.335938 260.976563 405.621094 C 241.578125 413.277344 223.613281 425.589844 206.617188 437.984375 C 184.648438 454.011719 165.023438 473.207031 143.113281 489.316406 C 95.464844 524.394531 55.789063 521.9375 11.054688 482.777344 C 7.371094 479.546875 3.6875 476.320313 0 473.121094 C 6.65625 509.972656 21.023438 543.019531 42.21875 573.015625 C 69.273438 611.292969 104.75 638.714844 149.285156 653.769531 C 253.378906 688.960938 384.867188 639.914063 425.140625 547.335938 C 465.417969 639.914063 596.90625 688.960938 701 653.769531 C 745.535156 638.714844 781.011719 611.292969 808.0625 573.015625 C 829.257813 543.019531 843.628906 509.972656 850.285156 473.121094 C 846.597656 476.320313 842.914063 479.546875 839.230469 482.777344 "/>
</g>
</g>
</svg>
